<svg xmlns="http://www.w3.org/2000/svg" width="608.462" height="52.869" viewBox="0 0 608.462 52.869"><g id="e8a2d347-6a61-4d33-8338-ed4a2f68b7f3" data-name="レイヤー 2"><g id="b91f643b-85d4-4f18-b5cd-5d277d868985" data-name="aw"><path d="M600.556,16.6c-8.222-6.5-22.688-10.872-36.034-13.1C556.784,2.2,548.2,2,540.843,3.868s-13.112,6.111-12.861,10.687c.181,3.305,3.567,6.5,8.63,8.136a29.418,29.418,0,0,0,16.722.069c2.474-.774,4.806-2.4,3.6-3.849-.883-1.061-2.862-1.3-5.036-1.433a46.774,46.774,0,0,1-4.666-.364c-4.278-.711-6.512-3.725-5.234-6.148S547.3,6.818,551.625,6.2a48.355,48.355,0,0,1,13.227.3c7.643,1.045,15.014,2.933,20.983,5.839s10.467,6.872,11.936,11.256c1.839,5.491-1.38,11.445-8.326,15.4-8.568,4.879-22.4,5.912-33.989,5.237-24.16-1.408-38.556-8.2-51.753-16.513l15.643-.143c23.9-.386,47.8-.613,71.705-1.141-23.9-.527-47.8-.755-71.705-1.141l-19.679-.179c-5.24-3.45-10.429-7.081-16.12-10.646C461.393.593,411.837-7.79,388.823,10.526c-5.184,4.125-6.283,9.2-4.245,13.74q-40.173-.147-80.347-.172-40.172.044-80.345.167c2.035-4.539.935-9.612-4.246-13.735C196.626-7.79,147.069.593,124.916,14.468c-5.688,3.563-10.874,7.191-16.11,10.639l-19.69.179c-23.9.389-47.8.617-71.7,1.148,23.9.531,47.8.759,71.705,1.148l15.633.142c-13.195,8.312-27.589,15.1-51.742,16.507-11.591.675-25.422-.358-33.989-5.237-6.947-3.956-10.166-9.91-8.326-15.4,1.468-4.384,5.967-8.35,11.935-11.256S35.967,7.543,43.61,6.5a48.362,48.362,0,0,1,13.228-.3c4.32.621,8.349,2.346,9.627,4.769s-.955,5.437-5.234,6.148a46.75,46.75,0,0,1-4.666.364c-2.173.129-4.153.372-5.035,1.433-1.207,1.452,1.124,3.075,3.6,3.849a29.422,29.422,0,0,0,16.723-.069c5.062-1.638,8.448-4.831,8.629-8.136.251-4.576-5.505-8.815-12.861-10.687S51.679,2.2,43.94,3.5C30.594,5.725,16.128,10.1,7.907,16.6-5.2,26.965-2.111,42.764,17.929,49.614c18,6.153,43.979,2.462,61.767-1.874,18.921-4.612,30.945-11.336,42.2-19.859l38.929.354c5.147.046,10.294.073,15.441.111,2.468,4.574,11.991,7.248,19.846,7.675,11.189.61,19.932-2.685,24.712-7.427q41.706.16,83.411.18,41.7-.051,83.406-.185c4.779,4.744,13.524,8.042,24.718,7.432,7.859-.427,17.388-3.1,19.849-7.683,5.146-.038,10.291-.065,15.437-.111l38.919-.354c11.254,8.527,23.28,15.254,42.206,19.867,17.789,4.336,43.767,8.027,61.767,1.874C610.573,42.764,613.665,26.965,600.556,16.6Zm-474.9,8.356c.689-.55,1.376-1.1,2.065-1.667,14.453-11.834,34.545-22.121,63.068-18.573,14.055,1.748,29.5,7.5,28.115,16.7a8.243,8.243,0,0,1-1.047,2.873q-13.465.054-26.93.131c.144-.7.339-1.392.536-2.082,1.866-.279,8.7-2.194,4.558-3.541-9.861-3.205-19.438.265-20.435,5.733-4.921.036-9.841.061-14.762.105Zm80.714,7.094a19.82,19.82,0,0,1-9.724.633c-2.975-.708-4.859-2.43-5.559-4.229q11.344.069,22.69.113A24.963,24.963,0,0,1,206.367,32.047Zm205.453.633a19.825,19.825,0,0,1-9.725-.633,24.957,24.957,0,0,1-7.415-3.488q11.351-.05,22.7-.114C416.683,30.245,414.8,31.971,411.82,32.68Zm35.821-8.039c-4.92-.044-9.84-.069-14.76-.106-.99-5.472-10.572-8.946-20.437-5.74-4.143,1.347,2.692,3.262,4.559,3.541.2.692.393,1.39.537,2.089q-13.464-.082-26.928-.133a8.227,8.227,0,0,1-1.05-2.878c-1.385-9.2,14.059-14.953,28.114-16.7,28.523-3.548,48.615,6.739,63.068,18.573.692.566,1.383,1.122,2.074,1.675Z" style="fill:#b49e68"/></g></g></svg>